<svg width="20" height="20" viewBox="0 0 20 20" fill="none" xmlns="http://www.w3.org/2000/svg">
<path d="M17.3667 3.84167C16.9411 3.41584 16.4357 3.07804 15.8795 2.84757C15.3233 2.6171 14.7271 2.49848 14.1251 2.49848C13.523 2.49848 12.9268 2.6171 12.3706 2.84757C11.8144 3.07804 11.309 3.41584 10.8834 3.84167L10.0001 4.725L9.11672 3.84167C8.25698 2.98193 7.09092 2.49893 5.87506 2.49893C4.6592 2.49893 3.49314 2.98193 2.63339 3.84167C1.77365 4.70141 1.29065 5.86748 1.29065 7.08334C1.29065 8.2992 1.77365 9.46526 2.63339 10.325L3.51672 11.2083L10.0001 17.6917L16.4834 11.2083L17.3667 10.325C17.7926 9.89937 18.1304 9.39402 18.3608 8.8378C18.5913 8.28158 18.7099 7.68541 18.7099 7.08334C18.7099 6.48126 18.5913 5.88509 18.3608 5.32887C18.1304 4.77266 17.7926 4.2673 17.3667 3.84167Z" stroke="black" stroke-width="1.5" stroke-linecap="round" stroke-linejoin="round"/>
</svg>
