<svg width="390" height="50" viewBox="0 0 390 50" fill="none" xmlns="http://www.w3.org/2000/svg">
<path d="M13.2981 37.9548C16.2418 41.1815 18.9618 42.4839 23.037 42.4839C27.1713 42.4839 29.5493 40.7867 29.5493 37.4451C29.5493 35.3499 28.1909 33.1429 27.2272 32.1793C26.7174 31.6695 25.9248 30.9918 24.8492 30.0282C24.6783 29.8572 24.5104 29.6894 24.3954 29.6303L21.6195 27.2523C19.2415 25.2691 17.5971 23.5719 16.6366 22.1544C15.673 20.74 15.1663 18.8687 15.1663 16.5467C15.1663 12.6393 16.7516 9.58059 19.9223 7.37356C23.037 5.16654 26.7734 4.08789 31.0786 4.08789C35.3248 4.08789 38.9493 4.65363 41.9521 5.84419L36.4035 12.4124C33.6867 9.75155 31.7034 8.67602 28.7038 8.67602C25.3062 8.67602 22.5303 10.4323 22.5303 13.547C22.5303 14.8495 22.8132 15.925 23.8328 17.0565C24.3426 17.6782 24.6814 18.0761 24.9643 18.359C25.1912 18.6418 25.701 19.0957 26.4936 19.7733C27.2863 20.4541 27.7401 20.8488 27.852 20.9048L30.5689 23.2268C32.2101 24.6412 33.3447 25.7198 34.0783 26.3975C34.7591 27.1342 35.4367 28.0978 36.1175 29.3412C36.7392 30.6437 37.0811 31.9461 37.0811 33.3605C37.0811 36.1923 36.2325 38.6822 34.4762 40.8364C32.7199 42.9875 30.5129 44.5728 27.9639 45.5364C25.415 46.556 22.6422 47.0658 19.7513 47.0658C15.8999 47.0658 11.7097 46.2172 7.1806 44.5728L13.2981 37.9548ZM51.52 18.8159L43.4784 21.4208C43.8172 17.1187 45.2906 13.662 47.8955 11.0571C50.0466 8.85009 52.6515 7.32072 55.7662 6.46899C58.8809 5.56442 63.0712 5.11058 68.3929 5.11058H71.3957C67.6002 18.7568 65.6761 28.4398 65.6761 34.1594C65.6761 39.708 67.4324 42.4839 70.9419 42.4839C74.5664 42.4839 78.5856 38.4646 82.1542 31.2716L87.364 5.11058L96.1983 4.42982L93.8203 14.6785L88.2717 42.4808H96.7641L89.9689 46.0493H79.2104L80.8517 37.7808C76.5496 44.5759 73.037 47.0689 67.8272 47.0689C60.861 47.0689 56.7268 42.3689 56.7268 34.4423C56.7268 32.801 57.0096 30.308 57.5194 26.9663C57.9733 23.9635 58.595 20.9639 59.4467 17.9051L61.5418 10.1463C61.5418 10.0904 61.7687 9.1827 61.9956 8.22218H60.6372C57.9764 8.22218 55.8253 9.18581 54.069 11.11C52.3687 12.9782 51.52 15.4152 51.52 18.4149V18.8159ZM122.247 46.7332L100.504 46.0525L104.128 42.0332C107.809 42.0332 110.131 41.6353 111.094 40.8426C112.453 39.7671 113.528 37.0503 114.377 32.745L119.36 7.99837C116.301 7.99837 113.811 8.962 111.828 10.9421C109.845 12.8663 108.884 15.3593 108.884 18.359V18.8687L100.786 21.4737C101.125 17.1715 102.711 13.603 105.486 10.8271C107.638 8.73197 110.298 7.14664 113.528 6.18301C116.643 5.21938 120.721 4.76865 125.816 4.76865C133.065 4.76865 138.104 5.39035 140.88 6.6928C143.767 7.93931 145.182 10.1463 145.182 13.317C145.182 18.3558 141.784 23.2268 136.177 26.1706C133.062 27.8119 128.76 28.6045 123.379 28.6045L122.925 30.9825C122.415 33.5315 121.567 35.6825 120.32 37.5507C119.133 39.192 117.15 40.8364 114.374 42.3627L125.869 42.6455L122.247 46.7332ZM127.569 7.60359L123.889 26.0649C131.815 26.0649 136.177 21.8746 136.177 14.4578C136.177 9.69871 133.687 7.60359 127.569 7.60359ZM145.462 46.0525L150.106 40.8426C152.882 40.8426 154.918 40.3888 156.223 39.4283C157.638 38.4646 158.772 35.8597 159.621 31.5016L164.209 8.28435C157.47 8.56722 153.733 12.1917 153.733 18.3652V18.875L145.692 21.4799C145.975 17.1777 147.504 13.6092 150.392 10.8333C152.487 8.73819 154.977 7.26476 157.864 6.41615C160.808 5.56753 164.66 5.11369 169.36 5.11369H189.462L185.953 10.2116C184.025 9.08012 181.309 8.51437 177.74 8.51437H172.701L169.984 22.1047H182.779L179.099 26.1239C175.872 25.6142 173.208 25.3313 171.113 25.3313H169.357L168.676 28.7848C167.488 34.8433 164.824 38.5828 159.897 41.0727L165.051 41.2996C169.13 41.5265 172.527 41.6384 175.188 41.6384C178.53 41.6384 181.473 40.3359 183.966 37.787L183.345 41.0727C181.25 43.3947 179.325 44.98 177.569 45.8286C175.869 46.6773 173.718 47.0751 171.057 47.0751C169.245 47.0751 163.864 46.8482 154.862 46.3944L145.462 46.0525ZM189.235 46.0525L192.86 42.0332C196.54 42.0332 198.862 41.6353 199.826 40.8426C201.184 39.823 202.26 37.1062 203.108 32.745L208.091 7.99837C204.977 7.99837 202.487 8.962 200.504 10.9421C198.52 12.9253 197.56 15.3593 197.56 18.359V18.8687L189.462 21.4737C189.801 17.1124 191.389 13.547 194.218 10.8271C196.425 8.62006 199.145 7.09069 202.316 6.18301C205.431 5.21938 209.565 4.76865 214.775 4.76865C221.909 4.76865 226.895 5.39035 229.723 6.6928C232.611 7.99526 234.025 10.2613 234.025 13.488C234.025 18.3589 230.628 22.4901 223.833 25.9468L229.947 36.4783C231.588 39.3661 233.174 40.8395 234.703 40.8395C235.779 40.8395 237.647 39.708 240.308 37.4419L239.627 40.8955C236.117 44.8028 233.286 46.727 231.135 46.727C227.51 46.727 225.303 44.52 221.961 38.4025L216.071 27.529H212.164L211.654 30.3049C210.973 33.4755 210.012 35.9126 208.822 37.6658C207.575 39.363 205.651 40.9514 203.102 42.3658L213.634 42.7046L208.707 46.7239L189.235 46.0525ZM212.732 24.9893H218.113C222.247 23.1211 225.135 18.8159 225.135 14.2868C225.135 9.81372 222.53 7.60359 217.32 7.60359H216.189L212.732 24.9893ZM245.689 40.7307C248.747 40.7307 250.727 40.3919 251.691 39.6552C253.105 38.6356 254.296 35.8597 255.2 31.3307L259.73 8.16933C256.615 8.16933 254.122 9.13296 252.142 11.0012C250.218 12.8694 249.254 15.3033 249.254 18.3621V18.8718L241.156 21.4768C241.495 17.1746 243.084 13.6061 245.912 10.8302C250.159 6.69591 256.049 4.93962 266.015 4.93962C272.81 4.93962 277.622 5.56131 280.454 6.86377C283.342 8.16622 284.756 10.3173 284.756 13.3201C284.756 18.5859 280.227 22.6642 272.073 24.7034C275.356 25.7789 277.678 26.7425 278.98 27.6471C281.414 29.4034 282.661 31.6664 282.661 34.3863C282.661 37.9548 280.622 40.9545 276.602 43.2766C272.583 45.5986 267.373 46.7301 260.973 46.7301C259.332 46.7301 256.046 46.6182 251.007 46.4472C245.968 46.1644 242.627 46.0493 240.982 46.0493L245.689 40.7307ZM264.038 26.1768L263.528 29.2355C262.906 32.0114 261.943 34.3894 260.584 36.4845C259.282 38.4677 257.016 40.2209 253.845 41.6384C258.884 42.2601 262.453 42.602 264.604 42.602C270.777 42.602 274.06 39.5433 274.06 33.8237C274.06 31.7285 273.267 29.9163 271.626 28.4429C270.096 26.9135 267.945 26.1768 265.169 26.1768H264.038ZM264.604 23.6278H266.245C269.077 23.6278 271.455 22.7202 273.323 20.911C275.191 19.0988 276.155 16.7767 276.155 14.004C276.155 9.98469 273.323 7.94552 267.662 7.94552L264.604 23.6278ZM298.635 12.3036C304.072 7.2057 311.377 4.09411 318.567 4.09411C327.174 4.09411 331.986 8.85009 331.986 17.2865C331.986 25.8939 328.194 33.8796 322.698 38.9185C317.205 43.9573 309.901 47.072 302.822 47.072C294.159 47.072 289.459 42.4839 289.459 33.8796C289.459 25.3282 293.143 17.3984 298.635 12.3036ZM318.228 36.1985C320.889 31.8373 322.191 26.1768 322.191 19.2107C322.191 12.0176 319.36 8.39625 313.755 8.39625C309.282 8.39625 305.713 10.6033 303.108 15.0795C300.504 19.5526 299.201 25.1603 299.201 31.8964C299.201 39.1454 302.033 42.7699 307.638 42.7699C311.999 42.7699 315.564 40.5598 318.228 36.1985ZM335.101 38.2377C336.065 39.0863 337.14 39.4842 338.328 39.4842C340.65 39.4842 344.047 36.7083 348.576 31.1597L352.484 26.5156L348.747 15.3033C347.389 11.225 346.54 9.98158 345.123 9.98158C343.481 9.98158 341.386 11.5669 338.837 14.7935L339.574 10.7742C343.028 6.01826 345.748 4.091 349.086 4.091C350.954 4.091 352.484 4.77176 353.559 6.07421C354.691 7.48857 355.881 10.0375 357.184 13.777L359.167 19.7795L364.998 12.6456C367.659 9.30393 369.925 7.04095 371.738 5.8504C373.494 4.65985 375.306 4.09411 377.286 4.09411C378.928 4.09411 380.684 4.65985 382.608 5.79134L375.415 12.3596C374.905 11.9057 374.283 11.6788 373.659 11.6788C371.337 11.6788 368.11 14.2278 363.864 19.3226L360.41 23.4569L364.43 35.2349C365.278 37.7839 365.959 39.3692 366.469 40.0469C366.979 40.7836 367.715 41.1783 368.564 41.1783C369.978 41.1783 372.359 39.4221 374.339 36.8762L373.547 40.6717C370.432 44.9179 367.317 47.0689 364.203 47.0689C362.39 47.0689 360.92 46.4472 359.841 45.2567C358.766 44.0102 357.69 41.7472 356.615 38.4615L353.783 30.137L346.761 38.6884C343.873 42.201 341.663 44.464 340.193 45.5396C338.663 46.5591 337.022 47.0689 335.154 47.0689C332.72 47.0689 330.454 46.2203 328.247 44.52L335.101 38.2377Z" fill="#ED2028"/>
</svg>
