<svg width="183" height="120" viewBox="0 0 183 120" fill="none" xmlns="http://www.w3.org/2000/svg">
<path d="M129.452 35.3027L128.641 30.7113V30.5526L128.564 30.292C127.998 27.6992 125.353 26.0344 121.758 26.0344C121.189 26.0344 120.602 26.0751 120.008 26.1606C120.7 25.5541 121.128 24.6627 121.132 23.6858C121.132 23.4904 121.115 23.2909 121.079 23.0956C120.802 21.5203 119.434 20.3684 117.826 20.3684C117.635 20.3684 117.44 20.3847 117.252 20.4172C117.228 20.4213 117.208 20.4213 117.187 20.4213C117.037 20.4213 116.862 20.3073 116.829 20.116C116.548 18.5326 115.181 17.3848 113.573 17.3848C113.381 17.3848 113.186 17.401 112.995 17.4336C112.828 17.4621 112.665 17.5028 112.51 17.5557C112.498 17.5231 112.482 17.4947 112.47 17.4621C112.502 17.0551 112.486 16.6399 112.413 16.2288C112.03 14.0511 110.235 12.4351 108.07 12.2479C107.276 11.7025 106.319 11.3972 105.33 11.3972C105.049 11.3972 104.764 11.4216 104.484 11.4704C103.421 11.6577 102.469 12.195 101.76 12.9684C101.158 11.7513 100.258 10.6848 99.1147 9.88297C97.7307 8.91421 96.1026 8.40134 94.4052 8.40134C93.2166 8.40134 92.0199 8.66592 90.9413 9.16658C90.6645 9.29276 90.4162 9.45558 90.1883 9.65096C89.944 9.59397 89.6917 9.56548 89.4393 9.56548C88.9468 9.56548 88.4665 9.67538 88.035 9.8789C87.9373 9.87076 87.8356 9.86669 87.7379 9.86669C87.0093 9.86669 86.3091 10.1068 85.7393 10.5383C84.3553 9.18693 82.4707 8.37285 80.4111 8.37285C79.9674 8.37285 79.5197 8.41355 79.0842 8.49089C77.0774 8.84502 75.3272 9.96031 74.1589 11.6292C73.3856 12.7323 72.9297 13.99 72.8076 15.2926C72.2621 15.0646 71.676 14.9466 71.0776 14.9466C70.8131 14.9466 70.5444 14.971 70.2798 15.0158C69.0953 15.2234 68.0574 15.8868 67.3614 16.876C66.9055 17.5272 66.6327 18.2721 66.5595 19.0455C66.0832 18.9112 65.5907 18.842 65.086 18.842C64.7685 18.842 64.4469 18.8705 64.1335 18.9274C62.7007 19.1798 61.4511 19.9776 60.6167 21.1702C60.1893 21.7849 59.8962 22.4646 59.7456 23.177C59.1269 23.5596 58.5896 24.0684 58.1581 24.683C56.823 26.592 56.8841 29.0628 58.1215 30.8823C57.0347 31.216 56.0985 31.8999 55.435 32.8442C54.6454 33.9676 54.3442 35.3353 54.5843 36.6867C54.6494 37.0652 54.7593 37.4316 54.9018 37.7775C53.8557 38.1357 52.9032 38.6201 52.1217 39.1981C50.3511 40.5088 49.4759 42.2835 49.6835 44.0989V44.3065L49.7527 44.5344L50.5749 49.2073C50.9576 51.3646 52.1543 53.2451 53.9493 54.5029C54.8245 55.1175 55.7973 55.549 56.8149 55.781C58.3332 61.7401 61.3575 67.166 65.6436 71.5824C70.4101 76.4872 76.475 79.8779 83.1831 81.3839C83.4232 81.4369 83.6674 81.4653 83.9076 81.4653C84.7339 81.4653 85.4951 81.1682 86.0771 80.6594C86.9523 81.3351 88.0472 81.734 89.2276 81.734C89.5288 81.734 89.8301 81.7096 90.1231 81.6567L95.1867 80.7652C96.4241 80.5454 97.4092 79.7273 97.8936 78.6568C98.9885 79.2388 100.201 79.54 101.447 79.54C101.891 79.54 102.338 79.4993 102.782 79.422C104.455 79.1289 105.949 78.3026 107.076 77.0734C107.382 77.1629 107.699 77.2118 108.029 77.2118C108.66 77.2118 109.279 77.0327 109.812 76.6907C115.604 72.9826 120.142 67.7236 122.943 61.4837C125.463 55.8665 126.452 49.7283 125.837 43.6105C126.716 43.0406 127.485 42.2998 128.092 41.4328C129.35 39.6377 129.83 37.4601 129.452 35.3027Z" fill="white"/>
<path d="M70.0193 20.983C70.3328 21.2028 70.695 21.3168 71.0695 21.3168C71.1753 21.3168 71.2852 21.3086 71.3911 21.2883C72.3883 21.1133 73.0559 20.1567 72.8808 19.1595C72.7954 18.6751 72.5267 18.2558 72.1237 17.975C71.7208 17.6941 71.2323 17.5842 70.752 17.6697C70.2676 17.7552 69.8484 18.0238 69.5675 18.4268C69.2867 18.8298 69.1768 19.3141 69.2622 19.7985C69.3518 20.2829 69.6204 20.7021 70.0193 20.983ZM70.5729 19.1269C70.6665 18.9926 70.809 18.903 70.9677 18.8745C71.0044 18.8664 71.041 18.8664 71.0736 18.8664C71.1997 18.8664 71.3178 18.903 71.4236 18.9763C71.5579 19.0699 71.6475 19.2124 71.676 19.3711C71.733 19.7049 71.5132 20.0224 71.1794 20.0794C71.0166 20.1079 70.8538 20.0712 70.7235 19.9776C70.5892 19.884 70.4996 19.7415 70.4711 19.5828C70.4427 19.424 70.4793 19.2612 70.5729 19.1269ZM99.941 26.5676C100.21 26.7549 100.389 27.0357 100.446 27.3573C100.564 28.0208 100.116 28.6598 99.4525 28.7738C99.3793 28.786 99.3101 28.7941 99.2409 28.7941C98.6588 28.7941 98.1418 28.3749 98.036 27.7806C97.918 27.1131 98.3657 26.4781 99.0292 26.36C99.3467 26.3071 99.6723 26.3804 99.941 26.5676ZM63.8323 52.4677C63.7753 52.1461 63.8486 51.8205 64.0358 51.5518C64.2231 51.2832 64.5039 51.1041 64.8255 51.0471C65.147 50.9901 65.4727 51.0634 65.7413 51.2506C66.01 51.4379 66.1891 51.7187 66.246 52.0403C66.3641 52.7038 65.9163 53.3428 65.2529 53.4609C65.1796 53.4731 65.1104 53.4812 65.0412 53.4812C64.4551 53.4812 63.9381 53.062 63.8323 52.4677ZM73.9106 32.0383C73.8537 31.7167 73.9269 31.3911 74.1142 31.1224C74.3014 30.8538 74.5823 30.6747 74.9038 30.6177C75.2254 30.5607 75.551 30.634 75.8197 30.8212C76.0883 31.0084 76.2674 31.2893 76.3244 31.6109C76.4424 32.2743 75.9947 32.9134 75.3312 33.0314C75.258 33.0437 75.1888 33.0518 75.1196 33.0518C74.5334 33.0477 74.0165 32.6285 73.9106 32.0383ZM58.2436 37.802C58.6588 38.095 59.1432 38.2456 59.6438 38.2456C59.7863 38.2456 59.9328 38.2334 60.0753 38.209C61.4063 37.9729 62.2977 36.703 62.0617 35.3719C61.9477 34.7288 61.5895 34.1671 61.0563 33.7926C60.519 33.4181 59.8718 33.2716 59.2246 33.3856C58.5815 33.4995 58.0197 33.8577 57.6453 34.391C57.2708 34.9283 57.1242 35.5755 57.2382 36.2227C57.3522 36.8658 57.7104 37.4275 58.2436 37.802ZM58.6466 35.0911C58.8338 34.8224 59.1147 34.6433 59.4362 34.5863C59.5095 34.5741 59.5787 34.566 59.6479 34.566C60.23 34.566 60.7469 34.9852 60.8527 35.5795C60.9097 35.9011 60.8365 36.2267 60.6492 36.4954C60.462 36.764 60.1811 36.9431 59.8596 37.0001C59.538 37.0571 59.2124 36.9838 58.9437 36.7966C58.6751 36.6093 58.496 36.3285 58.439 36.0069C58.3861 35.6854 58.4593 35.3597 58.6466 35.0911ZM117.928 45.4177C117.444 45.5032 117.025 45.7719 116.744 46.1748C116.463 46.5778 116.353 47.0622 116.438 47.5466C116.597 48.438 117.37 49.0648 118.246 49.0648C118.351 49.0648 118.457 49.0567 118.567 49.0363C119.052 48.9509 119.471 48.6822 119.752 48.2792C120.033 47.8763 120.142 47.3919 120.057 46.9075C119.882 45.9102 118.925 45.2386 117.928 45.4177ZM118.75 47.575C118.657 47.7094 118.514 47.7989 118.356 47.8274C118.026 47.8844 117.704 47.6646 117.647 47.3308C117.619 47.168 117.655 47.0052 117.749 46.8749C117.843 46.7406 117.985 46.6511 118.144 46.6226C118.181 46.6144 118.217 46.6144 118.25 46.6144C118.543 46.6144 118.799 46.822 118.852 47.1192C118.881 47.2779 118.844 47.4407 118.75 47.575ZM88.2019 23.8852C88.3443 23.8852 88.4868 23.873 88.6334 23.8486C89.2765 23.7346 89.8382 23.3764 90.2127 22.8432C90.5872 22.3059 90.7337 21.6587 90.6197 21.0115C90.5057 20.3684 90.1475 19.8067 89.6143 19.4322C89.077 19.0577 88.4258 18.9112 87.7826 19.0251C87.1395 19.1391 86.5778 19.4973 86.2033 20.0305C85.8288 20.5678 85.6823 21.215 85.7963 21.8622C85.9102 22.5053 86.2684 23.0671 86.8017 23.4415C87.2168 23.7305 87.7053 23.8852 88.2019 23.8852ZM87.2046 20.7306C87.3919 20.462 87.6727 20.2829 87.9943 20.2259C88.0676 20.2137 88.1368 20.2056 88.21 20.2056C88.4583 20.2056 88.7025 20.2829 88.9101 20.4254C89.1788 20.6126 89.3579 20.8935 89.4149 21.215C89.4719 21.5366 89.3986 21.8622 89.2113 22.1309C89.0241 22.3995 88.7432 22.5786 88.4217 22.6356C88.1001 22.6926 87.7745 22.6193 87.5058 22.4321C87.2372 22.2448 87.0581 21.964 87.0011 21.6424C86.9441 21.3249 87.0174 20.9993 87.2046 20.7306ZM97.9912 66.3397C98.4756 66.2542 98.8949 65.9855 99.1757 65.5826C99.4566 65.1796 99.5665 64.6952 99.481 64.2108C99.306 63.2136 98.3494 62.546 97.3522 62.7211C96.8678 62.8066 96.4486 63.0752 96.1677 63.4782C95.8868 63.8811 95.7769 64.3655 95.8624 64.8499C96.0212 65.7413 96.7945 66.3682 97.6697 66.3682C97.7755 66.3682 97.8813 66.36 97.9912 66.3397ZM97.0673 64.6382C97.0388 64.4754 97.0754 64.3126 97.169 64.1824C97.2626 64.048 97.4051 63.9585 97.5638 63.93C97.6005 63.9218 97.6371 63.9218 97.6697 63.9218C97.9627 63.9218 98.2192 64.1294 98.2721 64.4266C98.3006 64.5894 98.264 64.7522 98.1703 64.8825C98.0767 65.0168 97.9343 65.1063 97.7755 65.1348C97.4458 65.1918 97.1283 64.972 97.0673 64.6382ZM115.482 42.1166C115.539 42.4382 115.466 42.7638 115.278 43.0325C115.091 43.3011 114.81 43.4802 114.489 43.5372C114.415 43.5494 114.346 43.5575 114.273 43.5575C114.025 43.5575 113.78 43.4802 113.573 43.3337C113.304 43.1464 113.125 42.8656 113.068 42.544C112.95 41.8805 113.398 41.2415 114.061 41.1234C114.725 41.0054 115.364 41.4531 115.482 42.1166ZM107.573 36.0517C107.089 36.1372 106.669 36.4058 106.389 36.8088C106.108 37.2118 105.998 37.7002 106.083 38.1805C106.242 39.0719 107.015 39.6988 107.89 39.6988C107.996 39.6988 108.102 39.6906 108.212 39.6703C109.209 39.4953 109.877 38.5387 109.702 37.5415C109.523 36.5442 108.57 35.8726 107.573 36.0517ZM108.391 38.209C108.298 38.3433 108.155 38.4329 107.996 38.4614C107.834 38.4899 107.671 38.4532 107.54 38.3596C107.406 38.266 107.317 38.1235 107.288 37.9648C107.26 37.802 107.296 37.6432 107.39 37.5089C107.483 37.3746 107.626 37.285 107.785 37.2565C107.821 37.2484 107.858 37.2484 107.895 37.2484C108.021 37.2484 108.139 37.285 108.245 37.3583C108.379 37.4519 108.468 37.5944 108.497 37.7531C108.521 37.9159 108.485 38.0747 108.391 38.209ZM108.159 26.9095C107.488 26.4414 106.678 26.2623 105.872 26.4007C104.211 26.6938 103.096 28.2853 103.389 29.9461C103.649 31.4277 104.944 32.4779 106.401 32.4779C106.576 32.4779 106.755 32.4616 106.934 32.429C108.595 32.136 109.71 30.5444 109.417 28.8837C109.274 28.0818 108.827 27.3776 108.159 26.9095ZM106.722 31.2242C105.721 31.3992 104.768 30.7317 104.593 29.7344C104.418 28.7372 105.086 27.7806 106.083 27.6056C106.193 27.5852 106.299 27.5771 106.405 27.5771C106.779 27.5771 107.142 27.6911 107.455 27.9109C107.858 28.1917 108.127 28.615 108.212 29.0954C108.387 30.0967 107.72 31.0492 106.722 31.2242ZM91.9792 62.0942C91.3117 61.6261 90.4976 61.443 89.6917 61.5854C88.0309 61.8785 86.9156 63.47 87.2087 65.1308C87.4692 66.6124 88.7636 67.6626 90.2208 67.6626C90.3958 67.6626 90.5749 67.6463 90.754 67.6137C92.4148 67.3206 93.5301 65.7291 93.237 64.0684C93.0945 63.2665 92.6468 62.5623 91.9792 62.0942ZM90.5424 66.4129C89.5411 66.588 88.5886 65.9204 88.4136 64.9232C88.2385 63.9259 88.9061 62.9694 89.9033 62.7943C90.0132 62.774 90.1191 62.7658 90.2249 62.7658C90.5994 62.7658 90.9616 62.8798 91.2751 63.0996C91.678 63.3805 91.9467 63.8038 92.0322 64.2841C92.2072 65.2814 91.5396 66.2338 90.5424 66.4129ZM63.584 58.1052C63.7427 58.9966 64.5161 59.6235 65.3913 59.6235C65.4971 59.6235 65.6029 59.6153 65.7128 59.595C66.7101 59.42 67.3776 58.4634 67.2026 57.4662C67.1171 56.9818 66.8485 56.5625 66.4455 56.2817C66.0425 56.0008 65.5541 55.8909 65.0738 55.9764C64.5894 56.0619 64.1701 56.3305 63.8893 56.7335C63.6084 57.1365 63.4985 57.6249 63.584 58.1052ZM64.8906 57.4377C64.9842 57.3033 65.1267 57.2138 65.2854 57.1853C65.3221 57.1772 65.3587 57.1772 65.3913 57.1772C65.5174 57.1772 65.6355 57.2138 65.7413 57.2871C65.8756 57.3807 65.9652 57.5232 65.9937 57.6819C66.0222 57.8447 65.9855 58.0075 65.8919 58.1378C65.7983 58.268 65.6558 58.3617 65.4971 58.3901C65.3343 58.4186 65.1715 58.382 65.0412 58.2884C64.9069 58.1948 64.8173 58.0523 64.7888 57.8936C64.7603 57.7348 64.797 57.572 64.8906 57.4377ZM71.216 51.2018C71.3219 51.8083 71.8999 52.2153 72.5104 52.1054C73.8211 51.8734 74.7003 50.6197 74.4683 49.309C74.2363 47.9984 72.9867 47.1192 71.6719 47.3512C70.695 47.5221 69.8443 48.0635 69.2785 48.8776C68.7087 49.6876 68.4929 50.6726 68.6639 51.6495C68.8348 52.6264 69.3762 53.4772 70.1903 54.0429C71.0003 54.6128 71.9853 54.8285 72.9622 54.6576C73.296 54.5965 73.6135 54.8204 73.6705 55.1542C73.7275 55.4879 73.5077 55.8054 73.1739 55.8624C72.8849 55.9153 72.5959 55.9398 72.3069 55.9398C71.3015 55.9398 70.3246 55.6345 69.4861 55.0443C68.4074 54.2872 67.687 53.1556 67.455 51.8571C67.227 50.5587 67.516 49.248 68.2731 48.1693C69.0302 47.0907 70.1618 46.3702 71.4603 46.1382C73.4344 45.7881 75.3272 47.1151 75.6731 49.0892C76.0232 51.0634 74.6962 52.9561 72.7221 53.3021C71.4521 53.526 70.2351 52.6753 70.0112 51.4012C69.7873 50.1313 70.638 48.9142 71.9121 48.6903C72.2458 48.6293 72.5633 48.8532 72.6203 49.1869C72.6773 49.5207 72.4575 49.8382 72.1237 49.8952C71.5172 50.0132 71.1102 50.5953 71.216 51.2018ZM75.551 16.8637C75.3231 15.5653 75.6121 14.2546 76.3692 13.1759C77.1263 12.0973 78.2579 11.3768 79.5563 11.1448C82.2387 10.6726 84.799 12.4677 85.2712 15.146C85.6212 17.1202 84.2943 19.0129 82.3201 19.3589C82.1085 19.3955 81.8968 19.4159 81.6851 19.4159C79.9552 19.4159 78.4166 18.1703 78.1032 16.4079C77.9933 15.7932 78.1317 15.1704 78.4899 14.6576C78.8481 14.1447 79.3854 13.8028 80 13.6929C80.6146 13.583 81.2374 13.7214 81.7503 14.0796C82.2631 14.4378 82.6051 14.9751 82.715 15.5897C82.7719 15.9235 82.5521 16.241 82.2184 16.298C81.8846 16.359 81.5671 16.1351 81.5101 15.8014C81.4572 15.5083 81.2944 15.2519 81.0502 15.0809C80.8059 14.9099 80.5088 14.8448 80.2157 14.8977C79.9227 14.9506 79.6662 15.1135 79.4953 15.3577C79.3243 15.6019 79.2592 15.8991 79.3121 16.1921C79.5441 17.5028 80.7978 18.382 82.1085 18.15C83.4191 17.918 84.2984 16.6643 84.0663 15.3536C83.7122 13.3388 81.7788 11.9874 79.768 12.3456C78.7911 12.5165 77.9404 13.0579 77.3746 13.872C76.8047 14.682 76.589 15.667 76.7599 16.6439C76.8169 16.9777 76.5971 17.2952 76.2633 17.3522C75.9255 17.4173 75.608 17.1934 75.551 16.8637ZM106.319 71.0532C106.547 72.3517 106.258 73.6624 105.501 74.741C104.744 75.8197 103.612 76.5401 102.314 76.7722C102.025 76.8251 101.736 76.8495 101.447 76.8495C100.446 76.8495 99.4647 76.5442 98.6262 75.954C97.5476 75.1969 96.8271 74.0653 96.5951 72.7669C96.245 70.7927 97.572 68.9 99.5461 68.554C100.503 68.383 101.467 68.5988 102.265 69.1564C103.063 69.7141 103.592 70.5485 103.763 71.505C103.987 72.775 103.136 73.9921 101.862 74.2159C101.248 74.3258 100.625 74.1874 100.112 73.8292C99.5991 73.4711 99.2571 72.9338 99.1472 72.3191C99.0903 71.9853 99.3101 71.6679 99.6438 71.6109C99.9776 71.5498 100.295 71.7737 100.352 72.1075C100.405 72.4005 100.568 72.657 100.812 72.8279C101.056 72.9989 101.353 73.064 101.646 73.0111C101.94 72.9582 102.196 72.7954 102.367 72.5511C102.538 72.3069 102.603 72.0098 102.55 71.7167C102.436 71.0817 102.086 70.5281 101.557 70.1577C101.028 69.7873 100.389 69.6449 99.7537 69.7588C98.4431 69.9908 97.5638 71.2445 97.7959 72.5552C97.9668 73.5321 98.5082 74.3828 99.3223 74.9486C100.132 75.5185 101.121 75.7342 102.094 75.5632C103.071 75.3923 103.922 74.8509 104.488 74.0368C105.057 73.2268 105.273 72.2418 105.102 71.2649C105.045 70.9311 105.265 70.6136 105.599 70.5566C105.941 70.4996 106.262 70.7194 106.319 71.0532ZM126.798 35.7708L125.947 30.9474C125.642 29.2297 123.081 28.3464 119.988 28.8918C119.125 29.0424 118.331 29.364 117.757 29.7873C117.061 30.3043 116.74 30.9311 116.854 31.558C117.061 32.7262 118.718 33.3449 120.712 32.9907C121.62 32.832 122.198 32.2581 122.088 31.6271C121.978 31.0003 121.237 30.6584 120.33 30.8171C119.996 30.8741 119.776 31.1916 119.833 31.5254C119.853 31.6516 119.915 31.7615 119.996 31.847C118.852 31.9365 118.103 31.6027 118.058 31.3422C118.038 31.2323 118.164 31.0084 118.486 30.7683C118.905 30.4589 119.528 30.2147 120.199 30.0926C122.613 29.6652 124.587 30.3043 124.738 31.155C124.889 32.0098 123.252 33.2797 120.834 33.7071C118.421 34.1345 116.447 33.4955 116.296 32.6407C116.239 32.3069 115.921 32.083 115.588 32.1441C115.254 32.2011 115.034 32.5186 115.091 32.8523L115.942 37.6758C116.414 40.346 118.742 42.2306 121.368 42.2306C121.482 42.2306 121.596 42.2224 121.705 42.2143C123.639 54.4785 118.189 66.6612 107.699 73.3815C107.414 73.5647 107.333 73.9432 107.512 74.2281C107.63 74.4113 107.825 74.509 108.029 74.509C108.143 74.509 108.257 74.4764 108.359 74.4113C119.263 67.4265 124.933 54.7553 122.914 42.0067C124.115 41.6567 125.157 40.9199 125.886 39.8779C126.728 38.6812 127.054 37.2199 126.798 35.7708ZM122.113 40.9484C119.788 41.3595 117.558 39.8005 117.147 37.4723L116.638 34.5863C117.733 35.0789 119.308 35.2254 121.05 34.9201C122.792 34.6148 124.221 33.9391 125.08 33.1006L125.589 35.9866C126 38.3108 124.441 40.5373 122.113 40.9484ZM95.9113 22.8188L95.7647 23.0264C95.6467 23.1973 95.4554 23.2869 95.2641 23.2869C95.1419 23.2869 95.0198 23.2502 94.914 23.177C94.6372 22.9816 94.568 22.603 94.7634 22.3262L94.9099 22.1187L94.7023 21.9721C94.4256 21.7767 94.3564 21.3982 94.5517 21.1214C94.7471 20.8446 95.1297 20.7754 95.4025 20.9708L95.61 21.1173L95.7566 20.9097C95.952 20.6329 96.3346 20.5638 96.6073 20.7591C96.8841 20.9545 96.9533 21.3331 96.7579 21.6098L96.6114 21.8174L96.819 21.964C97.0957 22.1594 97.1649 22.5379 96.9696 22.8147C96.8515 22.9857 96.6602 23.0752 96.4689 23.0752C96.3468 23.0752 96.2247 23.0386 96.1188 22.9653L95.9113 22.8188ZM102.986 61.9111L103.132 61.7035L102.925 61.5569C102.648 61.3616 102.579 60.983 102.774 60.7062C102.969 60.4294 103.348 60.3602 103.625 60.5556L103.832 60.7021L103.979 60.4946C104.174 60.2178 104.553 60.1486 104.83 60.3439C105.106 60.5393 105.176 60.9179 104.98 61.1947L104.834 61.4023L105.041 61.5488C105.318 61.7442 105.387 62.1227 105.192 62.3995C105.074 62.5705 104.882 62.66 104.691 62.66C104.569 62.66 104.447 62.6234 104.341 62.5501L104.134 62.4036L103.987 62.6112C103.869 62.7821 103.678 62.8717 103.486 62.8717C103.364 62.8717 103.242 62.835 103.136 62.7618C102.859 62.5705 102.794 62.1879 102.986 61.9111ZM110.976 55.3455L110.373 55.4513L110.479 56.0537C110.536 56.3875 110.316 56.705 109.983 56.762C109.946 56.7701 109.909 56.7701 109.877 56.7701C109.584 56.7701 109.327 56.5625 109.274 56.2654L109.169 55.663L108.566 55.7688C108.53 55.7769 108.493 55.7769 108.46 55.7769C108.167 55.7769 107.911 55.5693 107.858 55.2722C107.801 54.9384 108.021 54.6209 108.355 54.564L108.957 54.4581L108.851 53.8557C108.794 53.5219 109.014 53.2044 109.348 53.1475C109.681 53.0864 109.999 53.3103 110.056 53.644L110.162 54.2465L110.764 54.1406C111.098 54.0796 111.415 54.3034 111.472 54.6372C111.529 54.971 111.306 55.2885 110.976 55.3455ZM75.3923 60.5597L75.5388 60.3521L75.3312 60.2056C75.0544 60.0102 74.9852 59.6316 75.1806 59.3548C75.376 59.0781 75.7545 59.0089 76.0313 59.2042L76.2389 59.3508L76.3855 59.1432C76.5808 58.8664 76.9594 58.7972 77.2362 58.9926C77.513 59.1879 77.5822 59.5665 77.3868 59.8433L77.2402 60.0509L77.4478 60.1974C77.7246 60.3928 77.7938 60.7713 77.5984 61.0481C77.4804 61.2191 77.2891 61.3086 77.0978 61.3086C76.9757 61.3086 76.8536 61.272 76.7477 61.1987L76.5401 61.0522L76.3936 61.2598C76.2756 61.4308 76.0842 61.5203 75.8929 61.5203C75.7708 61.5203 75.6487 61.4837 75.5429 61.4104C75.2661 61.2191 75.1969 60.8365 75.3923 60.5597ZM113.784 33.528L113.638 33.7356L113.846 33.8822C114.122 34.0775 114.192 34.4561 113.996 34.7329C113.878 34.9038 113.687 34.9934 113.495 34.9934C113.373 34.9934 113.251 34.9568 113.145 34.8835L112.938 34.7369L112.791 34.9445C112.673 35.1155 112.482 35.205 112.291 35.205C112.169 35.205 112.046 35.1684 111.941 35.0951C111.664 34.8998 111.595 34.5212 111.79 34.2444L111.936 34.0368L111.729 33.8903C111.452 33.6949 111.383 33.3164 111.578 33.0396C111.774 32.7628 112.156 32.6936 112.429 32.889L112.637 33.0355L112.783 32.8279C112.979 32.5511 113.361 32.4819 113.634 32.6773C113.911 32.8686 113.98 33.2512 113.784 33.528ZM87.2331 12.8259C87.4285 12.5491 87.8071 12.4799 88.0838 12.6753L88.5845 13.0253L88.9346 12.5247C89.1299 12.2479 89.5085 12.1787 89.7853 12.3741C90.0621 12.5695 90.1313 12.948 89.9359 13.2248L89.5858 13.7255L90.0865 14.0755C90.3633 14.2709 90.4325 14.6494 90.2371 14.9262C90.1191 15.0972 89.9277 15.1867 89.7364 15.1867C89.6143 15.1867 89.4922 15.1501 89.3864 15.0768L88.8857 14.7268L88.5357 15.2274C88.4176 15.3984 88.2263 15.4879 88.035 15.4879C87.9129 15.4879 87.7908 15.4513 87.6849 15.378C87.4082 15.1827 87.339 14.8041 87.5343 14.5273L87.8844 14.0267L87.3837 13.6766C87.1069 13.4812 87.0418 13.1027 87.2331 12.8259ZM70.6991 68.4929C70.7683 68.5173 70.8375 68.5296 70.9108 68.5296C71.0532 68.5296 71.1916 68.4807 71.3056 68.3871C72.8076 67.1253 73.5321 65.1389 73.1902 63.2095C72.8483 61.2801 71.4928 59.6642 69.6489 58.9885C69.4454 58.9152 69.2134 58.9559 69.0465 59.0943C67.5445 60.3562 66.82 62.3425 67.1619 64.2719C67.4997 66.2013 68.8552 67.8172 70.6991 68.4929ZM69.5634 60.2748C70.8253 60.8609 71.7411 62.0372 71.9813 63.4171C72.2255 64.797 71.7696 66.2135 70.7846 67.1985C69.5227 66.6124 68.6069 65.436 68.3667 64.0562C68.1225 62.6763 68.5784 61.2598 69.5634 60.2748ZM94.0551 17.108C94.9954 17.7633 96.1026 18.1011 97.2179 18.1011C98.0116 18.1011 98.8053 17.9302 99.5421 17.5883C99.7415 17.4947 99.8758 17.3033 99.8921 17.0876C100.063 15.1297 99.1676 13.2166 97.5638 12.0932C95.9601 10.9698 93.8557 10.7866 92.0729 11.6129C91.8734 11.7065 91.7391 11.8978 91.7228 12.1136C91.56 14.0714 92.4514 15.9845 94.0551 17.108ZM96.8678 13.0986C98.0157 13.9045 98.6954 15.2274 98.6954 16.6195C97.3888 17.0958 95.9113 16.9126 94.7593 16.1066C93.6115 15.3007 92.9317 13.9778 92.9317 12.5857C94.2383 12.1054 95.7159 12.2927 96.8678 13.0986ZM114.871 51.0146C113.369 52.2764 112.645 54.2627 112.987 56.1921C113.329 58.1215 114.684 59.7375 116.528 60.4131C116.597 60.4376 116.666 60.4498 116.74 60.4498C116.882 60.4498 117.02 60.4009 117.134 60.3073C118.636 59.0455 119.361 57.0591 119.019 55.1297C118.677 53.2004 117.322 51.5844 115.478 50.9087C115.27 50.8314 115.042 50.8721 114.871 51.0146ZM117.814 55.3414C118.058 56.7213 117.603 58.1378 116.617 59.1228C115.356 58.5367 114.44 57.3603 114.2 55.9805C113.955 54.6006 114.411 53.18 115.396 52.199C116.654 52.7811 117.57 53.9575 117.814 55.3414ZM94.6209 71.908C94.3849 70.577 93.1149 69.6856 91.7839 69.9216C90.4528 70.1577 89.5614 71.4277 89.7975 72.7587L90.0092 73.9636L88.8043 74.1752C87.4733 74.4113 86.5819 75.6813 86.8179 77.0123C87.0255 78.2009 88.0635 79.0353 89.2276 79.0353C89.366 79.0353 89.5126 79.0231 89.655 78.9987L94.7186 78.1073C95.2518 78.0136 95.606 77.5048 95.5124 76.9716L94.6209 71.908ZM89.4393 77.7979C88.7717 77.9159 88.1368 77.4682 88.0187 76.8047C87.9617 76.4832 88.035 76.1575 88.2222 75.8889C88.4095 75.6202 88.6903 75.4411 89.0119 75.3841L90.8192 75.0667C91.1529 75.0097 91.3727 74.6922 91.3158 74.3584L90.9983 72.5511C90.8802 71.8877 91.328 71.2486 91.9914 71.1306C92.659 71.0125 93.294 71.4603 93.412 72.1237L94.2627 76.9472L89.4393 77.7979ZM69.8117 35.2458C69.2459 35.3434 68.7575 35.6569 68.4278 36.129C68.0981 36.5971 67.9719 37.167 68.0737 37.7287L68.2324 38.6323L67.3288 38.7911C66.763 38.8888 66.2745 39.2022 65.9448 39.6703C65.6151 40.1384 65.489 40.7083 65.5907 41.27C65.6884 41.8358 66.0018 42.3242 66.474 42.6539C66.8363 42.9103 67.2637 43.0406 67.6992 43.0406C67.8254 43.0406 67.9516 43.0284 68.0777 43.008L72.2988 42.2632C72.5389 42.2224 72.7506 42.0881 72.893 41.8846C73.0355 41.6852 73.0884 41.4409 73.0436 41.1967L72.2988 36.9757C72.0912 35.8237 70.9759 35.0422 69.8117 35.2458ZM67.862 41.8073C67.3613 41.8968 66.8851 41.559 66.7996 41.0624C66.7589 40.8222 66.8118 40.578 66.9502 40.3745C67.0927 40.175 67.3003 40.0407 67.5445 39.9959L69.0506 39.7314C69.3843 39.6744 69.6041 39.3569 69.5472 39.0231L69.2826 37.517C69.193 37.0164 69.5309 36.5401 70.0275 36.4547C70.0804 36.4465 70.1333 36.4425 70.1862 36.4425C70.6217 36.4425 71.0125 36.7559 71.0898 37.1996L71.7818 41.1194L67.862 41.8073ZM110.479 45.4869L110.321 44.5833C110.223 44.0175 109.909 43.5291 109.441 43.1993C108.973 42.8696 108.403 42.7435 107.842 42.8452C106.678 43.0487 105.9 44.164 106.104 45.3282L106.848 49.5492C106.889 49.7894 107.023 50.001 107.227 50.1435C107.382 50.2534 107.565 50.3104 107.752 50.3104C107.805 50.3104 107.858 50.3063 107.915 50.2941L112.136 49.5492C113.3 49.3457 114.082 48.2304 113.874 47.0662C113.776 46.5005 113.463 46.012 112.991 45.6823C112.523 45.3526 111.953 45.2264 111.391 45.3282L110.479 45.4869ZM111.595 46.533C112.091 46.4435 112.571 46.7772 112.657 47.2779C112.747 47.7786 112.409 48.2548 111.912 48.3403L107.992 49.0323L107.3 45.1124C107.26 44.8723 107.313 44.6281 107.451 44.4245C107.593 44.2251 107.801 44.0908 108.045 44.046C108.098 44.0379 108.155 44.0338 108.208 44.0338C108.395 44.0338 108.578 44.0908 108.733 44.2007C108.933 44.3431 109.067 44.5507 109.112 44.795L109.376 46.301C109.433 46.6348 109.755 46.8587 110.084 46.7976L111.595 46.533ZM86.1138 67.3736C85.0432 66.6246 83.7448 66.3356 82.4545 66.5635C81.9945 66.645 81.559 66.7915 81.1519 66.9869C81.331 65.2732 80.6024 63.5107 79.0923 62.4565C78.8155 62.2611 78.4329 62.3303 78.2416 62.6071C77.4926 63.6776 77.2036 64.9802 77.4316 66.2664C77.513 66.7264 77.6595 67.1619 77.8549 67.5689C77.4031 67.5201 76.9472 67.5323 76.4872 67.6137C75.1969 67.8417 74.0775 68.5581 73.3245 69.6286C73.2309 69.7629 73.1943 69.9257 73.2227 70.0845C73.2512 70.2432 73.3408 70.3857 73.4751 70.4793C74.3299 71.0776 75.3068 71.3626 76.2796 71.3626C77.0245 71.3626 77.7653 71.1916 78.437 70.8619C78.3881 71.3137 78.4003 71.7737 78.4817 72.2336C78.7097 73.524 79.4261 74.6433 80.4966 75.3964C80.5983 75.4696 80.7245 75.5063 80.8466 75.5063C80.8833 75.5063 80.9158 75.5022 80.9525 75.4981C81.1112 75.4696 81.2537 75.3801 81.3473 75.2458C82.4056 73.7356 82.487 71.8307 81.7299 70.2798C81.9009 70.2961 82.0718 70.3083 82.2428 70.3083C83.7896 70.3083 85.3119 69.5797 86.2644 68.2202C86.358 68.0859 86.3946 67.9231 86.3661 67.7643C86.3376 67.6096 86.2481 67.4672 86.1138 67.3736ZM78.9051 63.8974C79.9634 64.9761 80.2524 66.6124 79.6255 67.9882C78.5672 66.9095 78.2823 65.2732 78.9051 63.8974ZM74.7614 69.8158C75.2864 69.2989 75.954 68.9529 76.6948 68.8226C77.4356 68.6924 78.1805 68.7901 78.8521 69.0953C77.7735 70.1537 76.1372 70.4427 74.7614 69.8158ZM80.6798 73.9595C80.1628 73.4344 79.8168 72.7669 79.6866 72.026C79.5563 71.2852 79.654 70.5363 79.9593 69.8687C81.0176 70.9474 81.3066 72.5837 80.6798 73.9595ZM80.7327 68.7616C81.2577 68.2446 81.9253 67.8986 82.6661 67.7684C83.4069 67.6381 84.1518 67.7358 84.8234 68.0411C83.7448 69.0994 82.1085 69.3884 80.7327 68.7616ZM101.907 19.3304C101.724 19.7252 101.663 20.1689 101.74 20.6045C101.838 21.1702 102.151 21.6587 102.619 21.9884C103.087 22.3181 103.657 22.4443 104.219 22.3425C104.284 22.3303 104.349 22.314 104.414 22.2977C104.809 22.8635 105.465 23.2095 106.165 23.2095C106.287 23.2095 106.413 23.1973 106.539 23.177C107.378 23.0304 108.025 22.4077 108.236 21.6261C108.302 21.6221 108.371 21.6139 108.436 21.6017C109.002 21.504 109.49 21.1906 109.82 20.7225C110.15 20.2544 110.276 19.6845 110.174 19.1228C110.097 18.6873 109.885 18.2925 109.58 17.9831C109.763 17.5883 109.824 17.1446 109.747 16.7091C109.543 15.5449 108.428 14.7675 107.264 14.971C107.199 14.9832 107.133 14.9995 107.068 15.0158C106.604 14.3523 105.782 13.99 104.944 14.1366C104.105 14.2831 103.458 14.9059 103.246 15.6874C103.181 15.6915 103.112 15.6996 103.047 15.7118C102.481 15.8095 101.992 16.1229 101.663 16.5951C101.333 17.0632 101.207 17.6331 101.309 18.1948C101.39 18.6222 101.602 19.0211 101.907 19.3304ZM102.672 17.2911C102.815 17.0917 103.022 16.9574 103.267 16.9126C103.393 16.8922 103.523 16.8963 103.649 16.9248C103.836 16.9736 104.04 16.9248 104.19 16.8027C104.341 16.6765 104.423 16.4893 104.41 16.2939C104.382 15.8299 104.707 15.4147 105.167 15.3333C105.631 15.2519 106.075 15.5286 106.205 15.9764C106.262 16.1636 106.401 16.3142 106.584 16.3794C106.767 16.4445 106.971 16.4201 107.133 16.3102C107.239 16.2369 107.361 16.1881 107.488 16.1677C107.984 16.0822 108.464 16.416 108.55 16.9126C108.599 17.2016 108.513 17.4865 108.314 17.7022C108.184 17.8447 108.123 18.036 108.159 18.2273C108.192 18.4186 108.314 18.5815 108.485 18.6669C108.745 18.7972 108.924 19.0414 108.973 19.3263C109.014 19.5665 108.961 19.8107 108.823 20.0142C108.68 20.2137 108.473 20.348 108.228 20.3928C108.102 20.4172 107.972 20.4131 107.846 20.3806C107.658 20.3358 107.455 20.3806 107.304 20.5027C107.154 20.6289 107.072 20.8161 107.085 21.0115C107.113 21.4755 106.787 21.8907 106.327 21.9721C105.868 22.0535 105.42 21.7767 105.285 21.329C105.228 21.1418 105.09 20.9911 104.907 20.926C104.838 20.9016 104.768 20.8894 104.699 20.8894C104.577 20.8894 104.459 20.926 104.357 20.9952C104.252 21.0685 104.133 21.1133 104.003 21.1377C103.763 21.1825 103.519 21.1255 103.315 20.9871C103.116 20.8446 102.982 20.637 102.937 20.3928C102.888 20.1038 102.973 19.8189 103.173 19.6031C103.303 19.4607 103.36 19.2694 103.328 19.078C103.295 18.8867 103.173 18.7239 103.002 18.6384C102.741 18.5082 102.562 18.264 102.513 17.979C102.477 17.7348 102.53 17.4906 102.672 17.2911ZM61.0441 30.0682C61.7523 30.5648 62.6152 30.6787 63.3886 30.4589C63.4456 31.2608 63.8486 32.0342 64.5568 32.5267C65.0371 32.8646 65.5866 33.0233 66.1321 33.0233C67.0031 33.0233 67.8579 32.6122 68.3912 31.851C68.8878 31.1428 69.0017 30.2798 68.7819 29.5105C68.8796 29.5024 68.9732 29.4902 69.0709 29.4739C69.7955 29.3477 70.4264 28.9447 70.8497 28.3423C71.7208 27.0968 71.4195 25.375 70.174 24.5039C69.5716 24.0806 68.8389 23.9218 68.1144 24.048C68.0167 24.0643 67.9231 24.0887 67.8294 24.1132C67.7725 23.3113 67.3695 22.542 66.6612 22.0454C66.0588 21.6221 65.3261 21.4592 64.6016 21.5895C63.8771 21.7157 63.2462 22.1187 62.8228 22.7211C62.3262 23.4293 62.2123 24.2923 62.4321 25.0656C61.6302 25.1226 60.8568 25.5256 60.3643 26.2338C59.4973 27.4753 59.8026 29.193 61.0441 30.0682ZM61.3697 26.9299C61.8541 26.2379 62.8106 26.071 63.5026 26.5554C63.7794 26.7508 64.162 26.6816 64.3533 26.4048C64.4266 26.299 64.4632 26.1769 64.4632 26.0547C64.4632 25.8634 64.3737 25.6721 64.2027 25.5541C63.5107 25.0697 63.3438 24.1132 63.8282 23.4212C64.0643 23.0874 64.4144 22.8635 64.8173 22.7903C65.2203 22.717 65.6273 22.8106 65.9611 23.0426C66.2949 23.2787 66.5188 23.6288 66.592 24.0317C66.6612 24.4347 66.5717 24.8418 66.3397 25.1755C66.2664 25.2814 66.2298 25.4035 66.2298 25.5256C66.2298 25.7169 66.3193 25.9082 66.4903 26.0263C66.7671 26.2216 67.1497 26.1524 67.341 25.8756C67.5771 25.5419 67.9271 25.318 68.3301 25.2447C68.7331 25.1755 69.1401 25.2651 69.4739 25.4971C70.1659 25.9815 70.3328 26.938 69.8484 27.63C69.6123 27.9638 69.2622 28.1876 68.8593 28.2609C68.4563 28.3301 68.0492 28.2406 67.7155 28.0085C67.4387 27.8132 67.0561 27.8824 66.8607 28.1592C66.7874 28.265 66.7508 28.3871 66.7508 28.5092C66.7508 28.7005 66.8403 28.8918 67.0113 29.0099C67.7033 29.4942 67.8701 30.4508 67.3858 31.1428C66.9014 31.8347 65.9448 32.0016 65.2529 31.5172C64.5609 31.0329 64.394 30.0763 64.8784 29.3843C64.9517 29.2785 64.9883 29.1564 64.9883 29.0343C64.9883 28.843 64.8987 28.6517 64.7278 28.5336C64.451 28.3383 64.0684 28.4074 63.8771 28.6842C63.3927 29.3762 62.4361 29.5431 61.7442 29.0587C61.0563 28.5784 60.8894 27.6219 61.3697 26.9299ZM84.0419 77.5618C71.8876 74.8346 62.599 65.2529 60.2178 53.0701C62.8676 52.2886 64.5731 49.6143 64.0806 46.8302L63.2299 42.0067C63.1729 41.6729 62.8513 41.4491 62.5216 41.5101C62.1878 41.5671 61.964 41.8846 62.025 42.2184C62.1756 43.0732 60.5393 44.3431 58.1215 44.7705C56.9248 44.9822 55.7688 44.9496 54.8652 44.681C54.1284 44.4612 53.6481 44.0989 53.5789 43.7041C53.5097 43.3133 53.8353 42.8045 54.454 42.3486C55.2111 41.7869 56.2857 41.3636 57.4824 41.1519C58.903 40.8996 59.8718 41.2944 59.9247 41.5915C59.9695 41.852 59.3793 42.4219 58.2762 42.7272C58.325 42.6173 58.3413 42.4952 58.3209 42.369C58.264 42.0352 57.9465 41.8113 57.6127 41.8724C56.705 42.0311 56.127 42.6051 56.2369 43.236C56.3468 43.8628 57.0876 44.2047 57.9953 44.046C59.9898 43.6959 61.3371 42.5481 61.1295 41.3799C60.9219 40.2117 59.2653 39.597 57.2708 39.9471C55.8909 40.1913 54.6331 40.696 53.7254 41.3677C52.6997 42.1288 52.2194 43.0365 52.3741 43.9198L53.2248 48.7433C53.4812 50.1923 54.2872 51.4542 55.492 52.3008C56.4282 52.9561 57.5191 53.2981 58.6425 53.2981C58.7646 53.2981 58.8908 53.2899 59.0129 53.2818C61.4755 65.9571 71.1346 75.9255 83.7733 78.7585C83.818 78.7667 83.8628 78.7748 83.9076 78.7748C84.1885 78.7748 84.4408 78.5794 84.5059 78.2945C84.5792 77.9607 84.3716 77.6351 84.0419 77.5618ZM56.1962 51.2954C55.26 50.6401 54.6331 49.655 54.4337 48.5275L53.9249 45.6335C54.1081 45.7149 54.3075 45.7881 54.5192 45.8533C55.5978 46.1748 56.9574 46.2196 58.3372 45.9754C60.0794 45.6701 61.5081 44.9944 62.3669 44.1559L62.8757 47.0418C63.2869 49.3701 61.7279 51.5966 59.3996 52.0077C58.2721 52.2031 57.1365 51.9507 56.1962 51.2954ZM113.776 64.1783C114.073 64.1254 114.281 63.8689 114.281 63.5759C114.281 63.5392 114.277 63.5026 114.273 63.47C114.216 63.1363 113.894 62.9124 113.565 62.9734C112.596 63.1444 111.623 62.9287 110.821 62.3629C110.015 61.8012 109.482 60.9586 109.311 59.9898C109.254 59.6561 108.933 59.4322 108.603 59.4932C108.306 59.5462 108.098 59.8026 108.098 60.0957C108.098 60.1323 108.102 60.1689 108.106 60.2015C108.277 61.1662 108.061 62.1431 107.496 62.9449C106.934 63.7509 106.091 64.2841 105.123 64.4551C104.825 64.508 104.618 64.7644 104.618 65.0575C104.618 65.0941 104.622 65.1308 104.626 65.1633C104.683 65.4971 105 65.721 105.334 65.6599C106.299 65.489 107.276 65.7047 108.078 66.2705C108.884 66.8322 109.417 67.6748 109.588 68.6435C109.641 68.9407 109.897 69.1483 110.19 69.1483C110.227 69.1483 110.259 69.1442 110.296 69.1401C110.593 69.0872 110.801 68.8308 110.801 68.5377C110.801 68.5011 110.797 68.4644 110.793 68.4319C110.622 67.4672 110.837 66.4903 111.403 65.6884C111.965 64.8865 112.808 64.3492 113.776 64.1783ZM109.779 66.2094C109.201 65.493 108.428 64.9557 107.561 64.6545C108.273 64.0765 108.814 63.3031 109.116 62.4361C109.694 63.1525 110.467 63.6898 111.334 63.991C110.622 64.569 110.08 65.3384 109.779 66.2094ZM74.5497 25.086C75.1928 24.972 75.8441 25.1145 76.3814 25.493C76.9187 25.8675 77.2769 26.4292 77.3868 27.0724C77.4397 27.3695 77.6961 27.5771 77.9892 27.5771C78.0258 27.5771 78.0584 27.573 78.095 27.5689C78.3922 27.516 78.5998 27.2596 78.5998 26.9665C78.5998 26.9299 78.5957 26.8933 78.5916 26.8607C78.3555 25.5297 79.247 24.2556 80.578 24.0236C80.8751 23.9707 81.0827 23.7143 81.0827 23.4212C81.0827 23.3846 81.0786 23.3479 81.0746 23.3154C81.0176 22.9816 80.7001 22.7577 80.3663 22.8188C79.7232 22.9327 79.0719 22.7903 78.5346 22.4117C77.9973 22.0372 77.6392 21.4755 77.5292 20.8324C77.4723 20.4986 77.1548 20.2748 76.821 20.3358C76.5239 20.3887 76.3163 20.6452 76.3163 20.9382C76.3163 20.9749 76.3203 21.0115 76.3244 21.0441C76.5605 22.3751 75.6691 23.6451 74.338 23.8811C74.0409 23.9341 73.8333 24.1905 73.8333 24.4836C73.8333 24.5202 73.8374 24.5568 73.8415 24.5894C73.8984 24.9232 74.2159 25.143 74.5497 25.086ZM77.2769 22.9368C77.4438 23.1118 77.631 23.2706 77.8345 23.413C78.0381 23.5555 78.2497 23.6736 78.4736 23.7712C78.1195 24.1091 77.8345 24.5161 77.6392 24.9639C77.4723 24.7888 77.285 24.6301 77.0815 24.4876C76.878 24.3452 76.6663 24.2271 76.4424 24.1294C76.7966 23.7916 77.0815 23.3846 77.2769 22.9368ZM109.975 24.9476C109.975 24.9842 109.979 25.0209 109.983 25.0534C110.04 25.3872 110.357 25.6111 110.691 25.55C112.352 25.2569 113.943 26.3722 114.236 28.033C114.289 28.3301 114.546 28.5377 114.839 28.5377C114.875 28.5377 114.908 28.5336 114.945 28.5296C115.242 28.4766 115.449 28.2202 115.449 27.9271C115.449 27.8905 115.445 27.8539 115.441 27.8213C115.299 27.0154 115.478 26.2054 115.95 25.5337C116.422 24.8621 117.122 24.4184 117.928 24.276C118.225 24.2231 118.433 23.9666 118.433 23.6736C118.433 23.6369 118.429 23.6003 118.425 23.5677C118.368 23.2339 118.05 23.0141 117.716 23.0711C116.056 23.3642 114.464 22.2489 114.171 20.5882C114.114 20.2544 113.797 20.0305 113.463 20.0916C113.166 20.1445 112.958 20.4009 112.958 20.694C112.958 20.7306 112.962 20.7673 112.966 20.7998C113.109 21.6058 112.93 22.4158 112.458 23.0874C111.989 23.759 111.285 24.2027 110.479 24.3452C110.186 24.3981 109.975 24.6545 109.975 24.9476ZM113.463 23.7875C113.666 23.4985 113.829 23.1892 113.955 22.8676C114.415 23.3968 115.002 23.8038 115.653 24.0562C115.124 24.5161 114.713 25.1023 114.46 25.7576C114 25.2285 113.414 24.8214 112.763 24.569C113.023 24.3411 113.259 24.0806 113.463 23.7875Z" fill="#989898"/>
<path d="M105.44 55.6996L102.782 40.6228C103.104 40.5658 103.385 40.3867 103.572 40.118C103.759 39.8494 103.832 39.5238 103.775 39.2022L102.713 33.1739C102.656 32.8523 102.477 32.5715 102.208 32.3842C101.94 32.197 101.614 32.1237 101.292 32.1807L75.9662 36.646C75.6447 36.703 75.3638 36.8821 75.1766 37.1507C74.9893 37.4194 74.916 37.745 74.973 38.0665L76.0354 44.0948C76.1412 44.6891 76.6582 45.1084 77.2403 45.1084C77.3095 45.1084 77.3827 45.1043 77.4519 45.088L80.1099 60.1648C80.1954 60.6492 80.464 61.0685 80.867 61.3493C81.1804 61.5691 81.5427 61.6831 81.9172 61.6831C82.023 61.6831 82.1329 61.675 82.2387 61.6546L89.4759 60.3806L93.0945 59.7415L103.95 57.8284C104.435 57.743 104.854 57.4743 105.135 57.0713C105.42 56.6724 105.526 56.184 105.44 55.6996ZM89.8667 59.0699L87.1029 43.3907L89.5126 42.9673L93.1352 42.3283L95.8991 58.0075L89.8667 59.0699ZM76.1779 37.8549L101.504 33.3896L102.566 39.4179L77.2403 43.8832L76.1779 37.8549ZM82.0311 60.4498C81.8683 60.4783 81.7055 60.4416 81.5753 60.348C81.4409 60.2544 81.3514 60.1119 81.3229 59.9532L78.6649 44.8764L85.9021 43.6023L88.6659 59.2816L82.0311 60.4498ZM104.134 56.3712C104.04 56.5055 103.897 56.5951 103.739 56.6236L97.1039 57.7918L94.3401 42.1125L101.577 40.8385L104.235 55.9153C104.264 56.0741 104.227 56.2369 104.134 56.3712ZM83.5575 34.0083C83.7692 34.0083 83.9809 33.988 84.1966 33.9514L87.2128 33.4181C87.5466 33.3611 87.7664 33.0437 87.7094 32.7099L87.1761 29.6937C87.0052 28.729 86.4679 27.8864 85.666 27.3206C84.8601 26.7589 83.8873 26.5432 82.9226 26.7142C80.9281 27.0642 79.5889 28.9732 79.943 30.9718C80.2564 32.7547 81.8073 34.0083 83.5575 34.0083ZM83.1342 27.9231C83.2767 27.8986 83.4232 27.8864 83.5657 27.8864C84.0623 27.8864 84.5507 28.037 84.9659 28.3301C85.5032 28.7046 85.8614 29.2663 85.9713 29.9094L86.3946 32.3232L83.9809 32.7506C82.6498 32.9826 81.3758 32.0952 81.1438 30.7642C80.9118 29.4332 81.8032 28.1592 83.1342 27.9231ZM88.9142 32.5023C88.9427 32.661 89.0323 32.8035 89.1666 32.8971C89.2683 32.9704 89.3945 33.007 89.5166 33.007C89.5533 33.007 89.5858 33.003 89.6225 32.9989L92.6386 32.4657C94.6332 32.1156 95.9723 30.2066 95.6182 28.208C95.4472 27.2433 94.9099 26.4007 94.1081 25.8349C93.3021 25.2732 92.3293 25.0575 91.3646 25.2285C89.3701 25.5785 88.0309 27.4875 88.3851 29.4861L88.9142 32.5023ZM91.5763 26.4333C91.7187 26.4089 91.8653 26.3967 92.0077 26.3967C92.5043 26.3967 92.9928 26.5473 93.408 26.8403C93.9453 27.2148 94.3035 27.7765 94.4174 28.4197C94.6535 29.7507 93.7621 31.0247 92.4311 31.2567L90.0173 31.6801L89.594 29.2663C89.3538 27.9434 90.2452 26.6694 91.5763 26.4333Z" fill="#ED2028"/>
<path d="M151.871 98.0197L152.657 98.7158L153.797 97.6738L156.284 95.4025L157.997 93.8353L155.995 92.659C155.05 92.1054 154.163 91.8327 153.284 91.8327C152.258 91.8327 151.293 92.1339 150.414 92.7282C149.616 93.2533 148.729 94.1366 147.699 95.431L147.642 95.5001C147.227 94.4378 146.832 93.6847 146.413 93.1637L146.405 93.1515L146.397 93.1393C145.701 92.2967 144.679 91.8327 143.527 91.8327C141.337 91.8327 139.933 93.3591 138.846 94.853L138.695 95.0605C137.735 93.0172 135.716 91.8327 132.964 91.8327C130.074 91.8327 127.135 93.0375 124.893 95.1379C124.119 95.8543 123.452 96.6928 122.902 97.6127C122.955 97.3318 122.98 97.0388 122.98 96.7416C122.98 95.0198 122.092 93.6725 120.484 92.948C119.263 92.3904 117.452 92.1298 114.778 92.1298C110.882 92.1298 108.444 92.8829 106.625 94.6535C106.132 95.1379 105.721 95.6711 105.391 96.2572C105.228 94.7268 104.366 93.5423 102.925 92.891C101.703 92.3334 99.8352 92.0688 97.0428 92.0688C95.0443 92.0688 93.4731 92.252 92.2438 92.6305C91.7676 92.7689 91.3158 92.9358 90.8924 93.1393L91.5478 92.1868H88.2833H81.327C79.5645 92.1868 78.0666 92.3619 76.8739 92.7038C75.7708 93.0294 74.7939 93.5626 73.9514 94.2953C73.5321 93.697 72.9338 93.2207 72.1767 92.8869C70.9718 92.3293 69.0913 92.0688 66.2623 92.0688C64.2963 92.0688 62.7414 92.252 61.5122 92.6346C60.1648 93.0375 58.9926 93.7173 58.032 94.6535L58.0238 94.6616L58.0157 94.6698C57.7837 94.9018 57.5679 95.1501 57.3725 95.4065L57.686 94.0592L58.2151 91.7839L55.8868 91.963L52.83 92.199L51.5356 92.2967L51.2832 93.5708L49.5248 102.395C48.4583 104.475 47.571 105.049 47.3227 105.119C47.2657 104.976 47.1721 104.638 47.1721 103.958C47.1721 102.167 47.8152 98.9397 49.0892 94.3645L49.6917 92.1909H47.4367H46.3987C44.3879 92.1909 42.8086 92.3659 41.563 92.7241C40.981 92.8829 40.4355 93.1027 39.9227 93.3754L37.8793 92.5654C36.6419 92.0769 35.205 91.8368 33.4873 91.8368C31.6312 91.8368 29.999 92.3252 28.6395 93.2858C27.0846 94.3686 26.2664 95.952 26.2664 97.861C26.2664 99.0007 26.5391 99.9776 27.0724 100.763C27.5079 101.402 28.1714 102.094 29.1076 102.872L30.06 103.686L30.1455 103.759L30.1496 103.763L30.1862 103.796C30.2961 103.893 30.3938 103.983 30.4874 104.064C30.6828 104.235 30.8497 104.386 30.9393 104.475C31.0492 104.589 31.216 104.899 31.2364 105.057C31.1346 105.086 30.9596 105.114 30.6991 105.114C29.7914 105.114 29.2989 104.878 28.5947 104.105L27.3369 102.725L26.071 104.097L23.9544 106.389L22.2041 108.285L24.6301 109.165C26.3967 109.804 28.0574 110.129 29.5634 110.129C30.7846 110.129 31.9487 109.914 33.0274 109.482C34.1956 109.038 35.1928 108.318 35.9866 107.341C36.8414 106.295 37.2728 105.057 37.2728 103.669C37.2728 102.978 37.1263 102.314 36.821 101.646L38.2986 101.166L41.0827 100.267L41.0949 100.263C41.038 100.572 40.985 100.885 40.9362 101.199C40.7327 102.53 40.6431 103.409 40.6431 104.04C40.6431 107.736 42.8249 110.125 46.1992 110.125C46.9726 110.125 47.6524 109.999 48.263 109.771H50.1394H53.8638H54.2872L54.4663 109.677L57.4539 109.771L64.9802 110.007L65.782 110.032L66.3153 109.433L67.5689 108.021L70.0234 105.257L66.3275 105.167H66.303C66.5228 104.707 66.6979 104.215 66.8322 103.686C68.3627 103.568 69.6204 103.238 70.6502 102.697C71.2242 102.395 71.7493 102.045 72.2133 101.659L73.6705 101.187L76.4547 100.287L76.7803 100.181L76.2837 102.693C76.0558 103.869 75.8237 104.288 75.7546 104.398C75.6894 104.431 75.4045 104.545 74.6718 104.545H73.9025L73.3896 105.119L71.7818 106.922L69.3559 109.645L72.9989 109.775L76.2389 109.893C79.4505 110.056 81.2537 110.129 81.9172 110.129C82.9836 110.129 83.8791 109.975 84.6403 109.653L88.1449 109.775L94.8855 110.011L95.5286 110.036L96.0293 109.629L97.7348 108.236L98.7239 107.431C99.6438 108.859 100.804 110.015 102.709 110.015C103.104 110.015 103.503 109.938 103.914 109.779H106.116C106.409 109.779 107.329 109.791 109.49 109.913H109.511H109.531L109.767 109.922C111.391 109.975 112.466 110.011 113.04 110.011C115.559 110.011 117.668 109.531 119.304 108.587C120.436 107.935 121.152 107.186 121.596 106.446C122.438 108.794 124.522 110.129 127.518 110.129C129.785 110.129 132.114 109.368 134.112 108L135.268 108.892C136.335 109.714 137.491 110.129 138.704 110.129C139.68 110.129 140.584 109.852 141.398 109.311L141.427 109.291L141.455 109.27C142.119 108.786 142.965 107.915 144.04 106.604L144.516 106.026C144.964 107.382 145.42 108.298 145.945 108.908L145.957 108.924L145.969 108.941C146.673 109.718 147.634 110.133 148.749 110.133C150.394 110.133 151.949 109.152 153.365 107.219L153.585 106.918L153.662 106.555L153.935 105.241L155.449 97.9912L150.903 103.836C150.797 103.971 150.695 104.089 150.597 104.195C150.553 104.072 150.508 103.938 150.455 103.779L149.372 100.604L149.95 99.9125C150.951 98.728 151.562 98.2273 151.871 98.0197ZM129.101 98.211C129.854 96.9167 130.673 96.7498 131.304 96.7498C131.841 96.7498 132.508 96.7498 132.508 98.7768C132.508 100.865 132.13 102.542 131.389 103.763C130.595 105.066 129.753 105.216 129.187 105.216C128.65 105.216 127.982 105.216 127.982 103.169C127.982 101.154 128.361 99.4892 129.101 98.211ZM141.329 98.3128C141.484 98.1174 141.618 97.9587 141.74 97.8284C141.756 97.8732 141.773 97.922 141.789 97.9709L142.778 100.938L142.045 101.809L142.037 101.817L142.029 101.826C140.723 103.425 140.035 103.906 139.79 104.04L138.671 103.055L137.951 103.714C138.325 102.994 138.63 102.233 138.854 101.447L141.329 98.3128ZM36.068 99.4118L35.9947 100.348C35.9255 100.263 35.8563 100.185 35.783 100.108L35.7383 100.059L35.6894 100.014L35.551 99.884C35.2865 99.6398 34.9283 99.306 34.4317 98.8786L33.4873 98.0686L33.3245 97.9302L33.292 97.9139C33.2512 97.8773 33.1983 97.8325 33.1373 97.7796L33.0192 97.6778C32.8116 97.5028 32.7221 97.4173 32.6855 97.3807L32.657 97.344L32.5878 97.2748C32.5226 97.2097 32.3639 97.0143 32.311 96.9533L32.2866 96.9207L32.2743 96.9085C32.3558 96.88 32.486 96.8515 32.6692 96.8515C33.0681 96.8515 33.353 96.8922 34.1345 97.6534L35.4533 98.9437L36.3163 97.9221C36.1901 98.3942 36.1087 98.8908 36.068 99.4118ZM58.1337 101.195L60.9342 100.295L61.2191 100.206L60.6289 103.128C60.4172 104.199 60.2137 104.679 60.116 104.87C59.9288 104.907 59.5258 104.964 58.7646 104.964H58.0035L57.861 105.123H56.2165H55.3699L56.0171 101.883L58.1337 101.195ZM106.71 101.195L108.497 100.621L104.781 103.783C104.475 104.044 104.243 104.223 104.072 104.345C103.995 104.239 103.906 104.097 103.8 103.91L103.796 103.901L103.792 103.893L102.526 101.712C103.332 101.146 103.975 100.527 104.447 99.8636L104.28 101.976L106.71 101.195ZM115.466 103.144C115.482 103.157 115.498 103.173 115.51 103.185L115.543 103.218L115.58 103.25C115.779 103.429 115.852 103.588 115.852 103.836C115.852 104.536 115.759 105.053 114.668 105.143C115.002 104.532 115.266 103.869 115.466 103.144ZM109.36 102.644C109.136 103.771 108.912 104.26 108.806 104.439C108.656 104.467 108.338 104.512 107.748 104.512L108.513 100.613L109.506 100.295L109.836 100.189L109.36 102.644ZM87.5018 101.618L85.1654 104.007C84.6199 104.565 84.046 104.825 83.354 104.825C82.951 104.825 82.4952 104.817 81.9904 104.801C82.3161 104.162 82.5603 103.45 82.7353 102.648C83.2116 102.689 83.7733 102.758 84.4368 102.864L85.3485 103.006L85.9713 102.326L86.3906 101.866L86.3824 101.976L87.5018 101.618ZM86.7976 98.0645H85.9794H83.643L83.8995 96.7905H84.2373C85.3729 96.7905 85.9387 96.9818 86.2115 97.1405L86.9401 97.5679C86.8871 97.7307 86.8383 97.8976 86.7976 98.0645ZM88.0757 105.526L88.902 101.166L91.617 100.291L91.9223 100.193L91.332 103.12C91.1245 104.195 90.925 104.675 90.8273 104.862C90.6441 104.899 90.2412 104.956 89.4678 104.956H88.7066L88.1978 105.522L88.0472 105.688L88.0757 105.526ZM96.9329 105.204C97.0143 105.025 97.0958 104.838 97.169 104.642L97.4824 105.22L96.9329 105.204ZM121.429 101.439C121.258 101.203 121.058 100.979 120.834 100.767C121.246 100.462 121.6 100.124 121.897 99.7619C121.701 100.307 121.547 100.869 121.429 101.439Z" fill="white"/>
<path d="M27.3329 105.265C28.3505 106.38 29.2907 106.832 30.7032 106.832C32.1319 106.832 32.9582 106.246 32.9582 105.09C32.9582 104.366 32.486 103.6 32.1563 103.267C31.9813 103.091 31.7045 102.855 31.3341 102.522C31.2771 102.465 31.216 102.404 31.1794 102.383L30.2188 101.561C29.3966 100.873 28.8267 100.287 28.4929 99.7985C28.1592 99.3101 27.9841 98.6629 27.9841 97.8569C27.9841 96.5055 28.5336 95.4472 29.6286 94.682C30.7072 93.9168 32.0016 93.5464 33.4873 93.5464C34.9568 93.5464 36.2104 93.7417 37.2484 94.1528L35.3272 96.4241C34.3869 95.5042 33.699 95.1297 32.661 95.1297C31.4847 95.1297 30.5241 95.7362 30.5241 96.8149C30.5241 97.2667 30.6218 97.6371 30.9759 98.0279C31.1509 98.2436 31.269 98.382 31.3666 98.4797C31.444 98.5774 31.6231 98.7361 31.8958 98.9681C32.1685 99.2042 32.3273 99.3386 32.368 99.3589L33.3082 100.161C33.8781 100.649 34.2689 101.024 34.5212 101.26C34.7573 101.516 34.9934 101.846 35.2254 102.277C35.4411 102.729 35.5592 103.177 35.5592 103.669C35.5592 104.65 35.2661 105.513 34.6596 106.254C34.0531 106.999 33.2879 107.549 32.4046 107.882C31.5213 108.236 30.5607 108.412 29.5634 108.412C28.2324 108.412 26.7793 108.118 25.2122 107.549L27.3329 105.265ZM40.5617 98.6425L37.7776 99.5421C37.8956 98.0523 38.4044 96.8556 39.304 95.956C40.0488 95.1908 40.9484 94.6616 42.0271 94.3686C43.1057 94.0551 44.5548 93.8964 46.3946 93.8964H47.4326C46.1178 98.6181 45.4544 101.968 45.4544 103.95C45.4544 105.872 46.0609 106.832 47.2779 106.832C48.5316 106.832 49.9237 105.44 51.157 102.953L52.9602 93.9005L56.0171 93.6644L55.1949 97.2097L53.2736 106.832H56.2125L53.8598 108.066H50.1353L50.7052 105.204C49.2154 107.557 48.0024 108.416 46.1992 108.416C43.7896 108.416 42.3568 106.787 42.3568 104.044C42.3568 103.474 42.4545 102.615 42.6295 101.459C42.7882 100.421 42.9999 99.3833 43.297 98.325L44.0216 95.6385C44.0216 95.6182 44.0989 95.3048 44.1763 94.971H43.7041C42.7842 94.971 42.0393 95.3048 41.4328 95.9723C40.8467 96.6195 40.5495 97.4621 40.5495 98.5V98.6425H40.5617ZM65.0331 108.306L57.5069 108.07L58.7606 106.678C60.0346 106.678 60.8365 106.539 61.1702 106.266C61.6424 105.896 62.0128 104.952 62.3059 103.466L64.0317 94.9018C62.9734 94.9018 62.1105 95.2356 61.4267 95.9194C60.7429 96.5869 60.4091 97.4458 60.4091 98.4878V98.6629L57.6086 99.5624C57.7267 98.0727 58.2762 96.8393 59.2368 95.8787C59.9817 95.1542 60.9016 94.6047 62.021 94.2709C63.0996 93.9371 64.508 93.7824 66.2746 93.7824C68.7819 93.7824 70.5281 93.9982 71.4888 94.45C72.4901 94.8814 72.9785 95.6467 72.9785 96.7416C72.9785 98.4838 71.8022 100.169 69.8647 101.191C68.786 101.76 67.2962 102.033 65.436 102.033L65.2814 102.855C65.1063 103.739 64.8092 104.484 64.3818 105.127C63.9707 105.697 63.2828 106.262 62.3262 106.791L66.303 106.889L65.0331 108.306ZM66.877 94.7634L65.6029 101.15C68.3464 101.15 69.8565 99.7008 69.8565 97.1324C69.8565 95.4879 68.9936 94.7634 66.877 94.7634ZM73.0681 108.07L74.6759 106.266C75.6365 106.266 76.3407 106.112 76.7925 105.778C77.281 105.444 77.6758 104.545 77.9689 103.034L79.5563 94.9995C77.224 95.0972 75.9296 96.3509 75.9296 98.4878V98.6629L73.1454 99.5624C73.2431 98.0727 73.7723 96.8393 74.7736 95.8787C75.4981 95.1542 76.361 94.6454 77.3583 94.3523C78.3759 94.0592 79.711 93.9005 81.3351 93.9005H88.2914L87.0785 95.663C86.4109 95.2722 85.4706 95.0768 84.2373 95.0768H82.4952L81.5549 99.7782H85.9835L84.7095 101.17C83.5942 100.995 82.6702 100.898 81.9457 100.898H81.3392L81.1031 102.094C80.692 104.19 79.7721 105.485 78.0666 106.348L79.8494 106.425C81.2618 106.502 82.4341 106.543 83.3581 106.543C84.5141 106.543 85.5317 106.091 86.3946 105.212L86.1789 106.348C85.4544 107.15 84.7868 107.699 84.1803 107.992C83.5942 108.285 82.8493 108.424 81.9253 108.424C81.2985 108.424 79.4383 108.346 76.3203 108.188L73.0681 108.07ZM88.2141 108.07L89.4678 106.678C90.7418 106.678 91.5437 106.539 91.8775 106.266C92.3496 105.912 92.7201 104.972 93.0131 103.466L94.739 94.9018C93.6603 94.9018 92.7974 95.2356 92.1136 95.9194C91.4297 96.6032 91.096 97.4458 91.096 98.4878V98.6629L88.2955 99.5624C88.4136 98.0523 88.9631 96.819 89.94 95.8787C90.7052 95.1135 91.6455 94.5843 92.7404 94.2709C93.8191 93.9371 95.2478 93.7824 97.051 93.7824C99.5217 93.7824 101.244 93.9982 102.224 94.45C103.226 94.9018 103.714 95.6833 103.714 96.8027C103.714 98.4878 102.538 99.9166 100.185 101.113L102.302 104.756C102.872 105.758 103.417 106.266 103.946 106.266C104.317 106.266 104.964 105.876 105.888 105.09L105.652 106.287C104.439 107.638 103.458 108.306 102.713 108.306C101.459 108.306 100.694 107.54 99.538 105.424L97.4987 101.663H96.1474L95.9723 102.623C95.7362 103.722 95.4025 104.565 94.9913 105.171C94.5599 105.758 93.8923 106.307 93.0131 106.8L96.6562 106.918L94.9506 108.31L88.2141 108.07ZM96.3468 100.779H98.207C99.6357 100.132 100.637 98.6425 100.637 97.0754C100.637 95.5286 99.7375 94.7634 97.9343 94.7634H97.5435L96.3468 100.779ZM107.752 106.226C108.81 106.226 109.494 106.108 109.828 105.855C110.316 105.501 110.728 104.541 111.041 102.973L112.608 94.9588C111.529 94.9588 110.667 95.2926 109.983 95.9398C109.315 96.5869 108.981 97.4295 108.981 98.4878V98.6629L106.181 99.5624C106.299 98.0727 106.848 96.8393 107.825 95.8787C109.295 94.45 111.334 93.8394 114.782 93.8394C117.134 93.8394 118.799 94.0551 119.78 94.507C120.782 94.9588 121.27 95.7037 121.27 96.7416C121.27 98.5652 119.703 99.9735 116.882 100.682C118.018 101.052 118.824 101.386 119.271 101.699C120.114 102.306 120.545 103.091 120.545 104.032C120.545 105.265 119.841 106.303 118.449 107.109C117.057 107.911 115.254 108.306 113.04 108.306C112.47 108.306 111.334 108.265 109.592 108.208C107.85 108.11 106.69 108.07 106.124 108.07L107.752 106.226ZM114.098 101.191L113.923 102.249C113.707 103.21 113.373 104.032 112.905 104.756C112.453 105.444 111.672 106.051 110.573 106.539C112.315 106.755 113.552 106.873 114.297 106.873C116.434 106.873 117.57 105.815 117.57 103.836C117.57 103.112 117.297 102.485 116.727 101.976C116.198 101.447 115.453 101.191 114.493 101.191H114.098ZM114.297 100.307H114.867C115.848 100.307 116.67 99.9939 117.318 99.367C117.965 98.7402 118.299 97.9383 118.299 96.9777C118.299 95.5856 117.318 94.8814 115.36 94.8814L114.297 100.307ZM126.073 96.3916C127.954 94.6291 130.481 93.5504 132.972 93.5504C135.952 93.5504 137.617 95.1949 137.617 98.1174C137.617 101.097 136.306 103.861 134.405 105.603C132.504 107.345 129.977 108.424 127.526 108.424C124.526 108.424 122.902 106.836 122.902 103.857C122.898 100.898 124.172 98.1541 126.073 96.3916ZM132.85 104.659C133.77 103.148 134.222 101.191 134.222 98.7809C134.222 96.2939 133.241 95.0402 131.304 95.0402C129.757 95.0402 128.519 95.8054 127.62 97.3522C126.72 98.8989 126.268 100.841 126.268 103.173C126.268 105.68 127.249 106.934 129.187 106.934C130.697 106.934 131.93 106.169 132.85 104.659ZM138.691 105.363C139.025 105.656 139.396 105.794 139.807 105.794C140.609 105.794 141.785 104.834 143.352 102.912L144.703 101.305L143.409 97.4255C142.937 96.013 142.644 95.5816 142.155 95.5816C141.585 95.5816 140.861 96.1311 139.982 97.2464L140.238 95.8543C141.435 94.2098 142.375 93.5423 143.531 93.5423C144.178 93.5423 144.707 93.7784 145.078 94.2261C145.469 94.7146 145.88 95.5978 146.332 96.8922L147.015 98.9681L149.034 96.4974C149.954 95.3414 150.74 94.5558 151.367 94.1447C151.973 93.7336 152.6 93.5382 153.288 93.5382C153.858 93.5382 154.464 93.7336 155.132 94.1243L152.645 96.3956C152.47 96.2369 152.254 96.1596 152.038 96.1596C151.236 96.1596 150.117 97.0428 148.648 98.8053L147.451 100.234L148.843 104.309C149.136 105.192 149.372 105.737 149.547 105.973C149.722 106.23 149.979 106.364 150.272 106.364C150.76 106.364 151.586 105.758 152.27 104.874L151.998 106.189C150.919 107.658 149.84 108.403 148.766 108.403C148.139 108.403 147.63 108.188 147.256 107.777C146.885 107.345 146.511 106.564 146.14 105.424L145.159 102.542L142.729 105.501C141.728 106.714 140.967 107.5 140.458 107.87C139.929 108.224 139.359 108.399 138.716 108.399C137.873 108.399 137.088 108.106 136.326 107.516L138.691 105.363Z" fill="#ED2028"/>
</svg>
